<?xml version="1.0" encoding="utf-8"?>
<!-- Generator: Adobe Illustrator 21.1.0, SVG Export Plug-In . SVG Version: 6.00 Build 0)  -->
<svg version="1.1" id="Layer_1" xmlns="http://www.w3.org/2000/svg" xmlns:xlink="http://www.w3.org/1999/xlink" x="0px" y="0px"
	 viewBox="0 0 805.8 440.4" style="enable-background:new 0 0 805.8 440.4;" xml:space="preserve">
<style type="text/css">
	.st0{fill:#FDB514;}
	.st1{fill:#6CBF53;}
	.st2{fill:#557EA7;}
	.st3{fill:#E1CAAA;}
	.st4{fill:#534741;stroke:#534741;stroke-width:0.25;stroke-miterlimit:10;}
	.st5{fill:#C7484D;}
</style>
<title>svg_sabia</title>
<g id="Layer_2">
	<g id="Layer_1-2">
		<path class="st0" d="M315.6,214.7c0-4.7,0-11.9-1.5-17.1c-2.1-5.2-6.2-8.8-12.9-8.8c-8.8,0-12.4,6.7-14,15c-0.6,4.5-0.9,9-1,13.5
			v13.5h-52.3v-11.9c0-19.7,7.2-38.6,20.2-53.3c12.7-14.4,31-22.5,50.2-22.3c16.6,0,32.6,6.5,44.5,18.1
			c11.9,11.4,19.1,27.4,19.1,46.1v173.9c0,25.4,1.5,36.8,3.6,49.2h-51.3c-4.7-5.7-4.7-19.1-4.7-22.8H312
			c-3.7,6.6-8.6,12.4-14.5,17.1c-7.8,6.2-17.5,9.7-27.5,9.8c-10.1-0.2-19.7-4.9-25.9-12.9c-8.8-9.8-16-27.4-16-56.9
			c0-31.6,9.3-54.4,21.7-69.9s28-25.4,40.9-32.1s22.8-11.4,24.9-17.1L315.6,214.7z M315.6,293.9c-25.4,10.9-36.2,36.2-36.2,63.2
			c0,5.3,0.9,10.5,2.6,15.5c2.1,6.2,5.7,10.9,11.9,10.9c11.9,0,21.7-7.2,21.7-17.1V293.9z"/>
		<path class="st0" d="M403.6,50.1h52.3V166c8.8-8.3,16.6-14.5,26.9-19.1c4.4-2.4,9.4-3.7,14.5-3.6c14.5,0,24.3,8.3,31.1,18.6
			c6.2,10.9,9.3,24.9,9.3,36.8v180.7c0,11.9-3.1,25.9-9.3,36.2c-6.7,10.9-16.6,19.1-31.1,19.1c-9.8,0-20.2-5.7-28-11.4
			c-4.7-3.6-8.8-7.2-13.5-11.4v18.6h-52.2V50.1z M455.9,368.4c0,9.8,7.8,17.1,15.5,17.1s14-7.2,14-17.1V209.5
			c0-9.8-6.2-17.1-14-17.1s-15.5,8.8-15.5,17.1V368.4z"/>
		<path class="st0" d="M577,50.1h52.3v52.3H577V50.1z M577,430.6V147.4h52.3v283.2H577z"/>
		<path class="st0" d="M749.9,214.7c0-4.7,0-11.9-1.5-17.1c-2.1-5.2-6.2-8.8-12.9-8.8c-8.8,0-12.4,6.7-14,15c-0.6,4.5-0.9,9-1,13.5
			v13.5h-52.3v-11.9c0-19.6,7.1-38.6,20.2-53.3c12.7-14.4,31-22.5,50.2-22.3c16.6,0,32.6,6.5,44.5,18.1
			c11.9,11.4,19.2,27.4,19.2,46.1v173.9c0,25.4,1.5,36.8,3.6,49.2h-51.2c-4.7-5.7-4.7-19.1-4.7-22.8h-3.6
			c-3.7,6.6-8.6,12.4-14.5,17.1c-7.8,6.2-17.5,9.7-27.4,9.8c-10.1-0.2-19.7-4.9-25.9-12.9c-8.8-9.8-16-27.4-16-56.9
			c0-31.6,9.3-54.4,21.7-69.9s28-25.4,40.9-32.1s22.8-11.4,24.8-17.1L749.9,214.7z M749.9,293.9c-25.4,10.9-36.2,36.2-36.2,63.2
			c0,5.3,0.9,10.5,2.6,15.5c2.1,6.2,5.7,10.9,11.9,10.9c11.9,0,21.7-7.2,21.7-17.1V293.9z"/>
		<ellipse class="st1" cx="105.9" cy="233.2" rx="33.4" ry="31.8"/>
		<g id="globe-2">
			<polygon class="st2" points="100.2,213.2 100.2,213.3 100.2,213.2 			"/>
			<path class="st2" d="M105.9,201.4c-18.4,0-33.4,14.3-33.4,31.8s15,31.8,33.4,31.8s33.4-14.3,33.4-31.8S124.4,201.4,105.9,201.4z
				 M136.5,233.2c0,0.6-0.1,1.1-0.1,1.6c-0.2-0.5-0.5-1.2-0.6-1.5c-0.1-0.4-0.8-2-0.8-2c-0.3-0.4-0.7-0.8-1.1-1.1
				c-0.5-0.2-0.8-0.8-1.6-1.2c-0.5-0.4-1.2-0.6-1.8-0.7c-0.7,0-1.4-0.9-2.2-1.3s-0.9-0.2-0.9-0.2c0.4,0.5,0.7,1.1,0.9,1.6
				c0,0.3,1,0.9,2.1,0.7c0.3,0.5,0.6,1,1,1.5c0.3,0.3-0.1,0.7-0.8,1.1c-0.3,0.2-0.6,0.4-0.9,0.7c-0.6,0.4-1.2,0.8-1.8,1.1
				c-0.3,0.2-1.7,0.9-2.4,0.2c-0.3-0.3-0.2-1-0.5-1.4s-2.7-3.8-3.8-5.4c-0.3-0.5-0.6-0.9-1-1.3c-0.3-0.2,0.8-0.2,0.8-0.2
				c0-0.4,0-0.9-0.1-1.3c-0.1-0.4,0-0.9,0.1-1.3c0,0-1.2,0.7-1.5,0.9s-0.7-0.4-1.2-1c-0.5-0.5-0.8-1.1-1-1.8
				c-0.1-0.6,0.6-0.8,0.6-0.8l1-0.6c0.7-0.1,1.4-0.2,2.1-0.1c0.8,0.1,2.1,0.2,2.1,0.2s0.3-0.8-0.1-1.1c-0.6-0.4-1.3-0.7-2-0.8
				c-0.5,0.1,0.2-0.6,0.8-1l-1.3-0.2c0,0-1.2,0.6-1.5,0.7c-0.5,0.2-1,0.5-1.4,0.9c-0.5,0.6,0.2,1.3-0.3,1.5
				c-0.4,0.2-0.7,0.3-1.1,0.4c-0.5,0.1-1,0.1-1.4,0c-1.2,0-0.4,1-0.1,1.4l-0.9-1.1l-0.7-1.5c0,0-1-0.7-1.4-0.9s-1.9-1-1.9-1l0.1,1
				l1.3,1.3h0.1l0.7,0.9l-1.5,0.1v-0.9c-1.4-0.3-1.1-0.7-1.2-0.8c-0.3-0.2-1.1-0.8-1.1-0.8s-1.3,0.2-1.7,0.3s-0.4,0.4-1.1,0.7
				c-0.5,0.1-0.9,0.4-1.2,0.9c-0.4,0.6-0.9,1.2-1.4,1.8c-0.5,0.4-1.3,0.3-1.7,0.3c-0.7-0.1-1.3-0.3-2-0.4v-1.9
				c0.1-0.4,0.1-0.9,0.1-1.4l1-0.2l1.7-0.3l0.5-0.3l0.7-0.9c-0.4-0.3-0.5-0.8-0.3-1.2c0,0,0,0,0-0.1c0.3-0.4,1.3-0.4,1.7-0.8
				c0.4-0.2,0.7-0.4,1.2-0.6c0,0,0.8-0.7,1.6-1.4c0.4-0.2,0.8-0.4,1.3-0.6c0.7,0.6,1.5,1.2,2.3,1.6c0.6-0.2,1.1-0.4,1.6-0.8
				c0.2-0.4,0.2-0.9,0.2-1.3c-0.1-0.3-0.7-1.4-0.7-1.4s-0.3,0.6-0.7,1c-0.2,0.3-0.4,0.6-0.6,1c0,0-1.6-0.1-1.7-0.4s-0.3-0.9-0.5-1.2
				s-1-0.3-1.7-0.1s0.1-1.2,0.1-1.2s0.7-0.8,1.2-0.8c0.7-0.2,1.4-0.4,2-0.7c0.8-0.3,1.6-0.5,2.4-0.6c0.6,0,1.3,0.2,1.6,0.2h1.7
				l2.4-0.2c0,0,2.1,0.7,1.4,1.2c0.4,0.2,0.8,0.5,1.2,0.8c0.3,0.3,1.2-0.3,1.6-0.5C130.9,213.7,136.4,223,136.5,233.2z M81.6,216.1
				c0,0.4-0.6,0.5,0,1.6c0.8,1.4,0.1,2.1,0.1,2.1l-2.3,1.5c-0.3,0.2-1.3,1.4-0.7,1.1s1.3-0.7,0.7,0.2c-0.7,0.9-1.3,1.9-1.8,2.9
				c-0.2,0.6-1.4,1.9-1.4,2.5c-0.2,0.8-0.3,1.7-0.3,2.5c0,0.7-0.1,1.4-0.4,2c0.1-6,2.2-11.8,5.9-16.5C81.5,216,81.5,216,81.6,216.1z
				 M85.3,211.9c2.9-2.5,6.1-4.5,9.7-5.8c-0.4,0.4-0.8,0.9-0.8,0.9s-0.8,0-2.3,1.5c-0.5,0.5-1,1-1.5,1.5c-0.2,0.4-0.6,0.8-1,1.1
				c-0.5,0.3-0.9,0.7-1.2,1.2l-1.3,0.4l-1-0.4c0,0-0.9,0.3-0.8-0.1C85.2,212.1,85.2,212,85.3,211.9L85.3,211.9z M99.1,214.4
				l-0.5-0.7l0.5-1l1.1,0.4v-2l1.1-0.6l0.9,1.2l1.3,1.4l-0.9,0.7l-2.4,0.4v-1.2L99.1,214.4z M114.1,224.7c0.3-0.2,1.2,0.3,1.2,0.3
				c1.1,0.2,2.2,0.5,3.3,0.9c0.5,0.3,1.3,0.6,1.5,0.9c0.4,0.5,0.8,1.1,1.2,1.6c0.1,0.3,0.7,1.5,0.8,2c0.2,0.7,0.5,1.4,0.8,2.1
				c0.3,0.6,2.3,3,3,4.1l2.1-0.3c-0.1,0.5-0.3,0.9-0.5,1.3c-0.2,0.3-0.9,1.2-1.3,1.6c-0.4,0.6-0.9,1.2-1.5,1.6
				c-0.7,0.6-0.7,1.1-1,1.5c-0.3,0.5-0.6,0.9-0.8,1.4c0,0,0.2,2.2,0.3,2.6s-0.8,1.6-0.8,1.6l-1,1l-1.4,1.8l0.1,1.6l-1.6,1.2
				c-0.6,0.4-0.5,0.8-0.9,1.2c-0.8,0.6-1.8,1-2.7,1.3c-0.5,0.1-3,0.4-3,0.4v-1l-0.1-1.1c-0.2-0.6-0.4-1.2-0.7-1.8
				c-0.3-0.4-0.2-1.1-0.8-1.6c-0.4-0.4-0.7-0.8-0.9-1.3c0-0.4,0-0.9,0.1-1.3c0,0,0.5-1.2,0.7-1.6c0.2-0.5,0.1-1.1-0.2-1.5
				c-0.2-0.6-0.3-1.2-0.3-1.9c0-0.3-0.9-0.9-1.3-1.2s-0.2-0.8-0.2-1.2c-0.1-0.7-0.2-1.5-0.2-2.2c0.1-0.8-1-0.2-1.7,0
				c-0.4,0.2-0.9,0-1.1-0.4c-0.1-0.1-0.1-0.3-0.1-0.4c0-0.7-1.3-0.1-2.1,0.3c-0.9,0.3-1.7,0.6-2.7,0.8c-0.5,0.2-1,0.1-1.4-0.3
				c-0.4-0.4-0.9-0.7-1.4-1c-0.6-0.4-1.2-0.9-1.6-1.5c-0.7-0.9-1.3-1.8-1.7-2.9c-0.1-0.6-0.1-1.2,0-1.9c0-0.6,0-1.2,0.1-1.8
				c0.1-0.6,0.3-1.2,0.6-1.8c0.6-0.6,1.3-1.1,2-1.4c0.3-0.2,1.2-0.9,1.2-1.3s0.5-0.7,0.7-1.1s1-1.5,2.1-1.1c0.4,0,0.8-0.1,1.3-0.2
				c0.6-0.2,1.2-0.4,1.7-0.7c0.5-0.2,1.1-0.3,1.6-0.3c0.4,0.2,0.8,0.3,1.2,0.3c0.3,0,1.5-0.2,1.5-0.2c0.2,0.6,0.4,1.3,0.5,1.9
				c0,0.3,0.3,0.7,0.9,0.9S112.9,225.6,114.1,224.7L114.1,224.7z M127.3,246.2c0,0.6-0.1,1.1-0.2,1.6c-0.1,0.4-0.3,1.2-0.5,1.6
				c-0.2,0.6-0.5,1.1-1,1.5c-0.3,0.2-0.9,0.9-1.3,1s-0.6-0.8-0.5-1.2c0.2-0.6,0.4-1.1,0.7-1.6c0,0,0.1-0.7,0.2-1.1s1.5-1,1.5-1
				l0.9-1.6C127.3,245.7,127.3,245.9,127.3,246.2L127.3,246.2z M76.3,239.7c0.2,0.1,0.5,0.2,0.7,0.4c0.4,0.3,0.8,0.6,1.3,0.8
				c0.6,0.2,0.8,0.6,1.5,0.9s0.5,0.1,1.4,1.1s0.8,1,1,1.5c0.2,0.5,0.5,1,0.8,1.4c0.2,0.3,0.9,0.6,1.3,0.8c0.4,0.2,0.8,0.4,1.3,0.4
				c0.3,0,1.4,1,2,1.1s0.6,1.2,0.6,1.2l-0.6,1.5l-0.5,1.6l0.5,1.3c-0.3,0.3-0.7,0.5-1.2,0.6c-0.4,0-0.6,0.3-1,0.1
				C80.8,250.6,77.6,245.4,76.3,239.7L76.3,239.7z"/>
		</g>
		<path class="st0" d="M178.9,37.1C164.8,14.8,139.4-0.6,95.9,0c-34.2,0.6-57.6,13.7-73,31.9C7.5,50.8,1.4,75.3,1.4,98.1
			c0,11.5,2,22.9,6,33.6c7,21.2,18.3,41.9,33.3,62l54.3-44.1c-1.6-2.2-3.1-4.4-4.6-6.6c-10.7-16-18.1-30.8-18.1-45
			c0-24.5,6-41,24.8-41.6c11.4,0,18.8,8,23.4,19.4c0.5,1.2,0.9,2.5,1.3,3.7l71.2-6C190.5,60.7,185.7,48.3,178.9,37.1z"/>
		<path class="st3" d="M89.1,196.3l-48.2-2.6c-0.6,0-1-0.5-0.9-1.1c0-0.3,0.2-0.5,0.4-0.7l53.5-43.1c0.4-0.3,1.1-0.3,1.4,0.2
			c0.2,0.2,0.2,0.5,0.2,0.7l-5.3,45.7C90,195.9,89.6,196.3,89.1,196.3z"/>
		<path d="M78.4,195.9l9.8,0.4c1,0.1,1.8-0.6,1.9-1.6l1.2-9.2L78.4,195.9z"/>
		<path class="st4" d="M192.1,85.1l-67.4,5.7c-1,0.1-1.9-0.6-2-1.6l-0.9-9.2c-0.1-1,0.7-1.9,1.7-1.9c0,0,0,0,0,0l67.4-5.7
			c1-0.1,1.9,0.6,2,1.6l0.9,9.2C193.8,84.2,193,85,192.1,85.1z"/>
		<path class="st5" d="M181.9,114.7l-41.7,3.5c-8.2,0.7-15.5-5.1-16.2-12.9l-1.5-15.6l71.6-6l1.5,15.6
			C196.2,107.1,190.1,114,181.9,114.7z"/>
		<path class="st0" d="M179.4,269.8l-57.1,38.5c5.3,10.5,8.7,20.5,8.7,29.5c0,26.8-7.8,46.2-28.6,46.2c-15,0-22.8-9.1-27.3-22.8
			c-1.4-3.5-2.4-7.2-3.2-10.9l-69.2,7.5c2.4,16.6,7,32.1,15.1,45.1c14.3,22.8,39.7,37.6,84.6,37.6c38.4,0,62.5-12.5,77.5-31.9
			S200,362.9,200,335C200,312.3,191.6,290.8,179.4,269.8z"/>
		<path class="st3" d="M133.2,262.7l46.1,7.3c0.5,0.1,0.9,0.6,0.8,1.1c0,0.3-0.2,0.5-0.4,0.7l-55.9,37.4c-0.5,0.3-1.1,0.2-1.4-0.3
			c-0.1-0.2-0.2-0.5-0.1-0.7l9.8-44.8C132.2,262.9,132.7,262.6,133.2,262.7z"/>
		<path d="M134.1,262.7c-0.9-0.1-1.8,0.5-2,1.4l-2,8.5L143,264L134.1,262.7z"/>
		<path class="st4" d="M71.8,355.2l-66.6,7.4c-1,0.1-1.9-0.6-2-1.6l-1.1-9.2c-0.1-1,0.6-1.9,1.6-2c0,0,0,0,0,0l66.6-7.4
			c1-0.1,1.9,0.6,2,1.6l1.1,9.2C73.5,354.2,72.8,355.1,71.8,355.2C71.9,355.2,71.8,355.2,71.8,355.2z"/>
		<path class="st5" d="M12.9,320.4l41.7-4.6c7.9-0.9,15,4.7,16.1,12.5l1.8,15.6l-70.5,7.8l-1.8-15.6C-0.7,328.3,5,321.2,12.9,320.4
			C12.9,320.4,12.9,320.4,12.9,320.4z"/>
	</g>
</g>
</svg>
